<svg version="1.1" id="Layer_1" xmlns="http://www.w3.org/2000/svg" xmlns:xlink="http://www.w3.org/1999/xlink" x="0px" y="0px"
	 width="100%" viewBox="0 0 5120 5120" enable-background="new 0 0 5120 5120" xml:space="preserve">
<path fill="#FFFFFF" opacity="1.000000" stroke="none" 
	d="
M2360.000000,5124.000000 
	C1573.333374,5124.000000 788.666687,5124.000000 4.000000,5124.000000 
	C4.000000,3417.333252 4.000000,1710.666626 4.000000,4.000001 
	C1710.666626,4.000000 3417.333252,4.000000 5124.000000,4.000000 
	C5124.000000,1710.666626 5124.000000,3417.333252 5124.000000,5124.000000 
	C4203.333496,5124.000000 3282.666748,5124.000000 2360.000000,5124.000000 
M1091.068237,4239.284668 
	C1141.693970,4250.871582 1192.200317,4263.013184 1242.973022,4273.916016 
	C1320.466919,4290.556641 1398.471680,4304.564941 1476.866211,4316.274902 
	C1526.266968,4323.654785 1575.703369,4330.853516 1625.232178,4337.301758 
	C1676.088989,4343.922363 1727.019653,4350.084473 1778.025024,4355.424805 
	C1827.714111,4360.627441 1877.502563,4364.993652 1927.312256,4368.900391 
	C1993.734863,4374.109375 2060.184570,4379.112793 2126.688965,4383.093750 
	C2183.893799,4386.517090 2241.172363,4389.011230 2298.453613,4390.773926 
	C2365.737305,4392.844727 2433.054688,4394.515625 2500.364746,4394.830566 
	C2575.004883,4395.180176 2649.655029,4394.004395 2724.296631,4393.130371 
	C2830.275635,4391.888672 2936.166016,4387.952637 3041.910400,4380.770020 
	C3114.363037,4375.849609 3186.827881,4370.897461 3259.167236,4364.583496 
	C3323.527588,4358.965332 3387.808105,4352.177734 3451.966309,4344.575684 
	C3516.117920,4336.975098 3580.212402,4328.642578 3644.083740,4318.987793 
	C3743.518799,4303.957031 3842.433838,4285.882812 3940.635254,4264.054688 
	C4048.608887,4240.054688 4155.427246,4211.875977 4260.208008,4176.262207 
	C4308.145996,4159.968262 4355.409180,4141.927246 4402.007812,4122.114746 
	C4418.352539,4115.165527 4432.911621,4105.250488 4442.682129,4090.862549 
	C4462.250000,4062.047119 4476.453125,4030.521484 4484.369629,3996.327393 
	C4490.647949,3969.209473 4488.433105,3941.936768 4486.322754,3914.728027 
	C4483.231445,3874.875977 4479.644043,3835.056152 4475.696289,3795.279541 
	C4473.528809,3773.442871 4472.382812,3751.446289 4466.725098,3730.036133 
	C4440.325195,3630.128906 4408.212402,3532.126709 4369.605957,3436.251221 
	C4343.211426,3370.702637 4312.812500,3307.066895 4281.034668,3243.962646 
	C4248.727051,3179.806641 4209.210449,3120.907715 4161.328125,3067.529297 
	C4092.242188,2990.513184 4011.888428,2927.131592 3924.329590,2872.574463 
	C3830.716309,2814.244141 3731.479980,2767.360840 3628.595947,2727.970215 
	C3498.292480,2678.081543 3364.185303,2641.449219 3227.695801,2613.169434 
	C3222.537354,2612.100586 3216.987549,2611.221924 3211.867676,2611.963135 
	C3191.506348,2614.912109 3170.685547,2616.752197 3153.554199,2630.205322 
	C3151.998047,2631.427490 3150.110840,2632.227051 3148.380127,2633.227295 
	C2998.673340,2719.714600 2837.347900,2768.069092 2664.973633,2778.966064 
	C2610.435547,2782.413818 2555.780273,2781.632324 2501.173828,2776.971191 
	C2428.569824,2770.774414 2357.337402,2757.752441 2287.390381,2737.509033 
	C2189.521973,2709.184814 2097.476807,2667.825195 2011.020020,2613.945068 
	C2005.417480,2610.453613 1999.607666,2606.510742 1993.355835,2604.986328 
	C1971.375732,2599.626465 1949.185425,2594.544189 1926.647949,2602.666504 
	C1925.409302,2603.113037 1924.041382,2603.204102 1922.731689,2603.449707 
	C1811.317993,2624.345947 1701.675537,2652.145508 1594.113281,2687.992188 
	C1478.169922,2726.631592 1366.200928,2774.297607 1260.346436,2835.727051 
	C1168.249390,2889.172852 1083.140747,2951.771240 1008.706177,3028.319824 
	C951.179932,3087.479248 902.554504,3153.088867 864.782410,3226.572998 
	C855.039368,3245.527588 845.435364,3264.555176 835.925354,3283.627930 
	C772.429810,3410.972900 723.226379,3543.774902 683.797180,3680.375732 
	C672.307983,3720.179688 663.316406,3760.247559 660.335510,3801.681396 
	C657.276123,3844.206787 653.008972,3886.643799 649.640869,3929.148682 
	C648.168457,3947.730469 647.353821,3966.298828 650.479736,3984.954102 
	C655.961060,4017.666260 669.061340,4047.321045 684.785522,4076.118408 
	C691.927490,4089.197998 700.640381,4100.775391 713.213867,4109.007812 
	C719.849121,4113.352051 726.456970,4117.984375 733.660095,4121.166992 
	C751.927185,4129.237793 770.418213,4136.831543 789.005249,4144.144043 
	C886.445923,4182.480469 986.555664,4212.385254 1091.068237,4239.284668 
M1600.022705,1705.992554 
	C1601.079834,1730.618286 1601.778198,1755.265625 1603.266479,1779.865234 
	C1606.656616,1835.897827 1616.135132,1891.006226 1630.286377,1945.267212 
	C1680.673340,2138.469238 1780.576294,2301.587158 1930.755859,2433.007324 
	C2095.278564,2576.979004 2287.644043,2655.817871 2505.565186,2670.973389 
	C2607.952881,2678.093750 2709.305664,2668.644531 2808.884521,2643.054443 
	C3205.650879,2541.092529 3506.490723,2195.693115 3535.033691,1767.894653 
	C3540.645996,1683.774536 3535.684570,1599.975952 3519.016602,1517.175659 
	C3482.476562,1335.659912 3401.918457,1176.185425 3274.479004,1041.882935 
	C3096.302734,854.111023 2876.737549,753.065979 2618.424072,737.125916 
	C2540.276611,732.303467 2462.476074,738.061401 2385.633789,753.152527 
	C2194.062012,790.775391 2027.277954,876.991638 1889.048828,1014.823914 
	C1699.308594,1204.019165 1603.515137,1433.893921 1600.022705,1705.992554 
z"/>
<path fill="#525252" opacity="1.000000" stroke="none" 
	d="
M1089.477295,4238.844727 
	C986.555664,4212.385254 886.445923,4182.480469 789.005249,4144.144043 
	C770.418213,4136.831543 751.927185,4129.237793 733.660095,4121.166992 
	C726.456970,4117.984375 719.849121,4113.352051 713.213867,4109.007812 
	C700.640381,4100.775391 691.927490,4089.197998 684.785522,4076.118408 
	C669.061340,4047.321045 655.961060,4017.666260 650.479736,3984.954102 
	C647.353821,3966.298828 648.168457,3947.730469 649.640869,3929.148682 
	C653.008972,3886.643799 657.276123,3844.206787 660.335510,3801.681396 
	C663.316406,3760.247559 672.307983,3720.179688 683.797180,3680.375732 
	C723.226379,3543.774902 772.429810,3410.972900 835.925354,3283.627930 
	C845.435364,3264.555176 855.039368,3245.527588 864.782410,3226.572998 
	C902.554504,3153.088867 951.179932,3087.479248 1008.706177,3028.319824 
	C1083.140747,2951.771240 1168.249390,2889.172852 1260.346436,2835.727051 
	C1366.200928,2774.297607 1478.169922,2726.631592 1594.113281,2687.992188 
	C1701.675537,2652.145508 1811.317993,2624.345947 1922.731689,2603.449707 
	C1924.041382,2603.204102 1925.409302,2603.113037 1926.647949,2602.666504 
	C1949.185425,2594.544189 1971.375732,2599.626465 1993.355835,2604.986328 
	C1999.607666,2606.510742 2005.417480,2610.453613 2011.020020,2613.945068 
	C2097.476807,2667.825195 2189.521973,2709.184814 2287.390381,2737.509033 
	C2357.337402,2757.752441 2428.569824,2770.774414 2501.173828,2776.971191 
	C2555.780273,2781.632324 2610.435547,2782.413818 2664.973633,2778.966064 
	C2837.347900,2768.069092 2998.673340,2719.714600 3148.380127,2633.227295 
	C3150.110840,2632.227051 3151.998047,2631.427490 3153.554199,2630.205322 
	C3170.685547,2616.752197 3191.506348,2614.912109 3211.867676,2611.963135 
	C3216.987549,2611.221924 3222.537354,2612.100586 3227.695801,2613.169434 
	C3364.185303,2641.449219 3498.292480,2678.081543 3628.595947,2727.970215 
	C3731.479980,2767.360840 3830.716309,2814.244141 3924.329590,2872.574463 
	C4011.888428,2927.131592 4092.242188,2990.513184 4161.328125,3067.529297 
	C4209.210449,3120.907715 4248.727051,3179.806641 4281.034668,3243.962646 
	C4312.812500,3307.066895 4343.211426,3370.702637 4369.605957,3436.251221 
	C4408.212402,3532.126709 4440.325195,3630.128906 4466.725098,3730.036133 
	C4472.382812,3751.446289 4473.528809,3773.442871 4475.696289,3795.279541 
	C4479.644043,3835.056152 4483.231445,3874.875977 4486.322754,3914.728027 
	C4488.433105,3941.936768 4490.647949,3969.209473 4484.369629,3996.327393 
	C4476.453125,4030.521484 4462.250000,4062.047119 4442.682129,4090.862549 
	C4432.911621,4105.250488 4418.352539,4115.165527 4402.007812,4122.114746 
	C4355.409180,4141.927246 4308.145996,4159.968262 4260.208008,4176.262207 
	C4155.427246,4211.875977 4048.608887,4240.054688 3940.635254,4264.054688 
	C3842.433838,4285.882812 3743.518799,4303.957031 3644.083740,4318.987793 
	C3580.212402,4328.642578 3516.117920,4336.975098 3451.966309,4344.575684 
	C3387.808105,4352.177734 3323.527588,4358.965332 3259.167236,4364.583496 
	C3186.827881,4370.897461 3114.363037,4375.849609 3041.910400,4380.770020 
	C2936.166016,4387.952637 2830.275635,4391.888672 2724.296631,4393.130371 
	C2649.655029,4394.004395 2575.004883,4395.180176 2500.364746,4394.830566 
	C2433.054688,4394.515625 2365.737305,4392.844727 2298.453613,4390.773926 
	C2241.172363,4389.011230 2183.893799,4386.517090 2126.688965,4383.093750 
	C2060.184570,4379.112793 1993.734863,4374.109375 1927.312256,4368.900391 
	C1877.502563,4364.993652 1827.714111,4360.627441 1778.025024,4355.424805 
	C1727.019653,4350.084473 1676.088989,4343.922363 1625.232178,4337.301758 
	C1575.703369,4330.853516 1526.266968,4323.654785 1476.866211,4316.274902 
	C1398.471680,4304.564941 1320.466919,4290.556641 1242.973022,4273.916016 
	C1192.200317,4263.013184 1141.693970,4250.871582 1089.477295,4238.844727 
z"/>
<path fill="#525252" opacity="1.000000" stroke="none" 
	d="
M1600.023193,1704.000488 
	C1603.515137,1433.893921 1699.308594,1204.019165 1889.048828,1014.823914 
	C2027.277954,876.991638 2194.062012,790.775391 2385.633789,753.152527 
	C2462.476074,738.061401 2540.276611,732.303467 2618.424072,737.125916 
	C2876.737549,753.065979 3096.302734,854.111023 3274.479004,1041.882935 
	C3401.918457,1176.185425 3482.476562,1335.659912 3519.016602,1517.175659 
	C3535.684570,1599.975952 3540.645996,1683.774536 3535.033691,1767.894653 
	C3506.490723,2195.693115 3205.650879,2541.092529 2808.884521,2643.054443 
	C2709.305664,2668.644531 2607.952881,2678.093750 2505.565186,2670.973389 
	C2287.644043,2655.817871 2095.278564,2576.979004 1930.755859,2433.007324 
	C1780.576294,2301.587158 1680.673340,2138.469238 1630.286377,1945.267212 
	C1616.135132,1891.006226 1606.656616,1835.897827 1603.266479,1779.865234 
	C1601.778198,1755.265625 1601.079834,1730.618286 1600.023193,1704.000488 
z"/>
</svg>